HIERARCHY
ROOT ui
{
	 OFFSET 0 0 0
	 CHANNELS 3 XPosition YPosition Z Position
	 EndSite
	 {
	 OFFSET 0 -1 0
	 }
}
ROOT li
{
	 OFFSET 0 0 0
	 CHANNELS 3 XPosition YPosition Z Position
	 EndSite
	 {
	 OFFSET 0 -1 0
	 }
}
ROOT ul
{
	 OFFSET 0 0 0
	 CHANNELS 3 XPosition YPosition Z Position
	 EndSite
	 {
	 OFFSET 0 -1 0
	 }
}
ROOT ll
{
	 OFFSET 0 0 0
	 CHANNELS 3 XPosition YPosition Z Position
	 EndSite
	 {
	 OFFSET 0 -1 0
	 }
}
ROOT tt
{
	 OFFSET 0 0 0
	 CHANNELS 3 XPosition YPosition Z Position
	 EndSite
	 {
	 OFFSET 0 -1 0
	 }
}
ROOT tb
{
	 OFFSET 0 0 0
	 CHANNELS 3 XPosition YPosition Z Position
	 EndSite
	 {
	 OFFSET 0 -1 0
	 }
}
ROOT td
{
	 OFFSET 0 0 0
	 CHANNELS 3 XPosition YPosition Z Position
	 EndSite
	 {
	 OFFSET 0 -1 0
	 }
}
ROOT v
{
	 OFFSET 0 0 0
	 CHANNELS 3 XPosition YPosition Z Position
	 EndSite
	 {
	 OFFSET 0 -1 0
	 }
}
ROOT bn
{
	 OFFSET 0 0 0
	 CHANNELS 3 XPosition YPosition Z Position
	 EndSite
	 {
	 OFFSET 0 -1 0
	 }
}
MOTION
Frames: 13
Frame Time: 0.002
-3.544909954071045E-4	1.313440054655075E-4	0		0.4183744201660156	-2.3081484375	0		-1.1711812744140624	0.020666980743408205	0		-0.729295166015625	-2.662180419921875	0		1.2551553955078125	-0.7523392333984374	0		2.8313466796875	0.1948443603515625	0		4.5263994140625	0.2273367919921875	0		5.5449755859375	0.12186031341552735	0		-0.1313616943359375	5.96718603515625	0		
-0.01646131706237793	0.0070931072235107424	0		0.4303238525390625	-2.31669775390625	0		-1.1694407958984374	0.020066251754760744	0		-0.6865029296875	-2.681557861328125	0		1.2539385986328124	-0.7564834594726563	0		2.82820556640625	0.20199485778808593	0		4.5281064453125	0.2276596221923828	0		5.5496611328125	0.1051995849609375	0		-0.26301400756835935	5.9475029296875	0		
1.9892999902367592E-5	-0.004623958110809326	0		0.43035531616210937	-2.319992431640625	0		-1.167731689453125	0.01946687889099121	0		-0.7213215942382812	-2.68031494140625	0		1.2616502685546875	-0.7628072509765625	0		2.825009521484375	0.20815386962890625	0		4.51878369140625	0.22822283935546875	0		5.54450537109375	0.10809385681152343	0		-0.1298526306152344	5.9663251953125	0		
-0.013088826179504395	0.006281706809997558	0		0.41937957763671874	-2.3210546875	0		-1.1538499755859375	0.029628931045532228	0		-0.682248779296875	-2.6825888671875	0		1.266498046875	-0.760061767578125	0		2.845347412109375	0.19383145141601563	0		4.52455126953125	0.2354801788330078	0		5.5520908203125	0.1034370346069336	0		-0.26063055419921877	5.94459033203125	0		
-0.011494473457336426	0.0058932509422302244	0		0.424449462890625	-2.316435546875	0		-1.14717919921875	0.03295451736450195	0		-0.7022982788085937	-2.686637451171875	0		1.27129638671875	-0.7563059692382812	0		2.836421142578125	0.21912127685546876	0		4.5360859375	0.23461933898925783	0		5.5562373046875	0.11971336364746094	0		-0.12755237579345702	5.9644775390625	0		
-0.009981390953063964	0.005521111965179444	0		0.43830361938476564	-2.31798095703125	0		-1.1507498779296874	0.02850607109069824	0		-0.6834072875976562	-2.6894599609375	0		1.269848876953125	-0.7604159545898438	0		2.81956201171875	0.20256114196777344	0		4.54444091796875	0.22881951904296874	0		5.5543876953125	0.10858319091796875	0		-0.260368408203125	5.9457705078125	0		
-0.012620466232299805	0.002247978925704956	0		0.43023651123046874	-2.310068603515625	0		-1.149333251953125	0.0279801082611084	0		-0.685659423828125	-2.69383447265625	0		1.2683251953125	-0.7635158081054687	0		2.835949462890625	0.2023347930908203	0		4.530990234375	0.2374518280029297	0		5.5554248046875	0.10939904022216797	0		-0.1426487274169922	5.95403759765625	0		
-0.017439453125	-0.004966358184814453	0		0.448509033203125	-2.329673095703125	0		-1.1661336669921876	0.021839452743530274	0		-0.6741513671875	-2.704463134765625	0		1.269754638671875	-0.7636654663085938	0		2.842099365234375	0.19531387329101563	0		4.537115234375	0.22967613220214844	0		5.55638818359375	0.11018761444091797	0		-0.12697489166259765	5.9643837890625	0		
-0.01009022617340088	0.001598552942276001	0		0.42614389038085937	-2.324452392578125	0		-1.15271044921875	0.03212758255004883	0		-0.6746072998046875	-2.706828857421875	0		1.2741297607421875	-0.7608638916015625	0		2.832779052734375	0.22060304260253907	0		4.5414130859375	0.23592576599121093	0		5.5643623046875	0.10541266632080078	0		-0.1265821533203125	5.96405322265625	0		
-0.00493033504486084	0.004225986003875732	0		0.4466991882324219	-2.317063232421875	0		-1.1516124267578125	0.03168637847900391	0		-0.6711168823242187	-2.705247802734375	0		1.2753302001953124	-0.76099169921875	0		2.848458251953125	0.20038656616210937	0		4.53864208984375	0.244296630859375	0		5.5546259765625	0.12566329956054687	0		-0.25865567016601565	5.94433349609375	0		
-0.003937961101531983	0.00395432710647583	0		0.4189754943847656	-2.31671630859375	0		-1.15652490234375	0.036393001556396486	0		-0.6759151611328125	-2.7114814453125	0		1.2733564453125	-0.7640508422851563	0		2.86465771484375	0.2121629638671875	0		4.5503310546875	0.23035853576660156	0		5.5553798828125	0.12978587341308595	0		-0.12597264862060548	5.96345849609375	0		
-0.0101867618560791	-0.0031591360569000245	0		0.4709707946777344	-2.32490576171875	0		-1.16783447265625	0.026250221252441405	0		-0.6798466186523437	-2.717707763671875	0		1.274326171875	-0.7641607055664063	0		2.84542724609375	0.20761590576171876	0		4.55119140625	0.23060870361328126	0		5.5560283203125	0.1303909912109375	0		-0.12574210357666016	5.96319482421875	0		
-0.009403972625732422	-0.0033891360759735105	0		0.4170509033203125	-2.32102978515625	0		-1.1670545654296876	0.025905860900878906	0		-0.6808338012695313	-2.71996484375	0		1.2807979736328126	-0.7843756713867187	0		2.846189208984375	0.20766799926757812	0		4.54506787109375	0.2369629669189453	0		5.55362451171875	0.11549371337890625	0		-0.1255487060546875	5.962953125	0		
